<svg xmlns="http://www.w3.org/2000/svg" version="1.1" xmlns:xlink="http://www.w3.org/1999/xlink" xmlns:svgjs="http://svgjs.dev/svgjs" width="1500" height="1500" viewBox="0 0 1500 1500"><rect width="1500" height="1500" fill="#ffffff"></rect><g transform="matrix(0.6666666666666666,0,0,0.6666666666666666,249.39393939393938,658.1886825078486)"><svg viewBox="0 0 396 73" data-background-color="#ffffff" preserveAspectRatio="xMidYMid meet" height="276" width="1500" xmlns="http://www.w3.org/2000/svg" xmlns:xlink="http://www.w3.org/1999/xlink"><g id="tight-bounds" transform="matrix(1,0,0,1,0.2400000000000091,-0.07485773409209173)"><svg viewBox="0 0 395.52 73.14971546818417" height="73.14971546818417" width="395.52"><g><svg viewBox="0 0 395.52 73.14971546818417" height="73.14971546818417" width="395.52"><g><svg viewBox="0 0 395.52 73.14971546818417" height="73.14971546818417" width="395.52"><g id="textblocktransform"><svg viewBox="0 0 395.52 73.14971546818417" height="73.14971546818417" width="395.52" id="textblock"><g><svg viewBox="0 0 395.52 73.14971546818417" height="73.14971546818417" width="395.52"><g transform="matrix(1,0,0,1,0,0)"><svg width="395.52" viewBox="0 -35.75 193.29 35.75" height="73.14971546818417" data-palette-color="url(#0884e017-bae9-498f-9f0c-287037dc0f56)"></svg></g></svg></g></svg></g></svg></g></svg></g><defs></defs><mask id="86a6db1d-e2da-4c33-963e-9347af5766b5"><g id="SvgjsG1003"><svg viewBox="0 0 395.52 73.14971546818417" height="73.14971546818417" width="395.52"><g><svg viewBox="0 0 395.52 73.14971546818417" height="73.14971546818417" width="395.52"><g><svg viewBox="0 0 395.52 73.14971546818417" height="73.14971546818417" width="395.52"><g id="SvgjsG1002"><svg viewBox="0 0 395.52 73.14971546818417" height="73.14971546818417" width="395.52" id="SvgjsSvg1001"><g><svg viewBox="0 0 395.52 73.14971546818417" height="73.14971546818417" width="395.52"><g transform="matrix(1,0,0,1,0,0)"><svg width="395.52" viewBox="0 -35.75 193.29 35.75" height="73.14971546818417" data-palette-color="url(#0884e017-bae9-498f-9f0c-287037dc0f56)"><path d="M29.8-2.15L36.8-2.15 36.8 0 0 0 0-2.15 10.75-2.15Q6.75-4.5 4.48-8.53 2.2-12.55 2.2-17.65L2.2-17.65Q2.2-25.35 7.53-30.55 12.85-35.75 20.55-35.75L20.55-35.75Q29.15-35.75 34.95-29.2L34.95-29.2 30.1-23.7Q26.4-28.3 20.9-28.3L20.9-28.3Q16.5-28.3 13.38-25.43 10.25-22.55 10.25-17.68 10.25-12.8 13.2-9.85 16.15-6.9 20.35-6.9L20.35-6.9Q26.1-6.9 29.75-11.45L29.75-11.45 34.75-6.3Q32.55-3.75 29.8-2.15L29.8-2.15ZM48.9-2.15L53.2-2.15 53.2 0 36.8 0 36.8-2.15 41.1-2.15 41.1-34.95 48.9-34.95 48.9-2.15ZM72.3-2.15L83.6-2.15 83.6 0 53.2 0 53.2-2.15 64.5-2.15 64.5-28.2 54.6-28.2 54.6-34.95 82.2-34.95 82.2-28.2 72.3-28.2 72.3-2.15ZM102.94-2.15L114.49-2.15 114.49 0 83.59 0 83.59-2.15 95.14-2.15 95.14-13.8 83.04-34.95 91.49-34.95 99.04-21.95 106.59-34.95 115.04-34.95 102.94-13.8 102.94-2.15ZM145.29-2.15L151.99-2.15 151.99 0 114.49 0 114.49-2.15 125.34-2.15Q121.34-4.5 119.07-8.53 116.79-12.55 116.79-17.65L116.79-17.65Q116.79-25.35 122.12-30.55 127.44-35.75 134.97-35.75 142.49-35.75 148.04-30.8L148.04-30.8 143.99-24.95Q141.64-27 139.67-27.78 137.69-28.55 135.39-28.55L135.39-28.55Q130.94-28.55 127.89-25.53 124.84-22.5 124.84-17.55 124.84-12.6 127.77-9.63 130.69-6.65 134.74-6.65 138.79-6.65 141.49-8.2L141.49-8.2 141.49-17.8 149.34-17.8 149.34-5.4Q147.64-3.5 145.29-2.15L145.29-2.15ZM182.14-2.15L193.29-2.15 193.29 0 151.99 0 151.99-2.15 163.14-2.15Q159.04-4.5 156.66-8.6 154.29-12.7 154.29-17.7L154.29-17.7Q154.29-25.4 159.59-30.58 164.89-35.75 172.64-35.75 180.39-35.75 185.69-30.58 190.99-25.4 190.99-17.7L190.99-17.7Q190.99-12.7 188.59-8.6 186.19-4.5 182.14-2.15L182.14-2.15ZM183.04-17.68Q183.04-22.35 180.04-25.65 177.04-28.95 172.66-28.95 168.29-28.95 165.29-25.65 162.29-22.35 162.29-17.68 162.29-13 165.29-9.73 168.29-6.45 172.66-6.45 177.04-6.45 180.04-9.73 183.04-13 183.04-17.68Z" opacity="1" transform="matrix(1,0,0,1,0,0)" fill="white" class="wordmark-text-0" id="SvgjsPath1000"></path></svg></g></svg></g></svg></g></svg></g></svg></g><defs><mask></mask></defs></svg><rect width="395.52" height="73.14971546818417" fill="black" stroke="none" visibility="hidden"></rect></g></mask><linearGradient x1="0" x2="1" y1="0.578" y2="0.595" id="0884e017-bae9-498f-9f0c-287037dc0f56"><stop stop-color="#6ee2f5" offset="0"></stop><stop stop-color="#6454f0" offset="1"></stop></linearGradient><rect width="395.52" height="73.14971546818417" fill="#000000" mask="url(#86a6db1d-e2da-4c33-963e-9347af5766b5)" data-fill-palette-color="primary"></rect></svg><rect width="395.52" height="73.14971546818417" fill="none" stroke="none" visibility="hidden"></rect></g></svg></g></svg>