<svg xmlns="http://www.w3.org/2000/svg" version="1.1" xmlns:xlink="http://www.w3.org/1999/xlink" xmlns:svgjs="http://svgjs.dev/svgjs" width="1500" height="1500" viewBox="0 0 1500 1500"><rect width="1500" height="1500" fill="#ffffff"></rect><g transform="matrix(0.6666666666666666,0,0,0.6666666666666666,249.39393939393938,646.7642490257779)"><svg viewBox="0 0 396 82" data-background-color="#ffffff" preserveAspectRatio="xMidYMid meet" height="310" width="1500" xmlns="http://www.w3.org/2000/svg" xmlns:xlink="http://www.w3.org/1999/xlink"><g id="tight-bounds" transform="matrix(1,0,0,1,0.2400000000000091,-0.03871816184093291)"><svg viewBox="0 0 395.52 82.07743632368185" height="82.07743632368185" width="395.52"><g><svg viewBox="0 0 628.9924292627254 130.52711888372093" height="82.07743632368185" width="395.52"><g></g><g transform="matrix(1,0,0,1,233.47242926272546,0.32469432558139033)"><svg viewBox="0 0 395.52 129.87773023255815" height="129.87773023255815" width="395.52"><g id="textblocktransform"><svg viewBox="0 0 395.52 129.87773023255815" height="129.87773023255815" width="395.52" id="textblock"><g><svg viewBox="0 0 395.52 129.87773023255815" height="129.87773023255815" width="395.52"><g transform="matrix(1,0,0,1,0,0)"><svg width="395.52" viewBox="2.8 -40.4 161.23999999999998 52.95" height="129.87773023255815" data-palette-color="url(#2c80f84b-3c0d-40b5-bbd5-49369790a2e3)"></svg></g></svg></g></svg></g></svg></g><g transform="matrix(1,0,0,1,0,0.32469432558139033)"><svg viewBox="0 0 160.43789143177298 129.87773023255815" height="129.87773023255815" width="160.43789143177298"><g><svg xmlns="http://www.w3.org/2000/svg" xmlns:xlink="http://www.w3.org/1999/xlink" version="1.1" x="0" y="0" viewBox="4.9995 13.57205104139477 90.00076814621133 72.85744895860523" enable-background="new 0 0 100 100" xml:space="preserve" height="129.87773023255815" width="160.43789143177298" class="icon-icon-0" data-fill-palette-color="accent" id="icon-0"></svg></g></svg></g></svg></g><defs></defs><mask id="ee0a1fc8-7f9d-4449-8bff-646db9763292"><g id="SvgjsG1635"><svg viewBox="0 0 395.52 82.07743632368185" height="82.07743632368185" width="395.52"><g><svg viewBox="0 0 628.9924292627254 130.52711888372093" height="82.07743632368185" width="395.52"><g><rect width="11.712507746189695" height="130.52711888372093" x="191.09890647415438" y="0" fill="white" opacity="1" stroke-width="0" stroke="transparent" fill-opacity="1" class="rect-qz-0" rx="1%" id="SvgjsRect1634" data-palette-color="url(#2c80f84b-3c0d-40b5-bbd5-49369790a2e3)"></rect></g><g transform="matrix(1,0,0,1,233.47242926272546,0.32469432558139033)"><svg viewBox="0 0 395.52 129.87773023255815" height="129.87773023255815" width="395.52"><g id="SvgjsG1633"><svg viewBox="0 0 395.52 129.87773023255815" height="129.87773023255815" width="395.52" id="SvgjsSvg1632"><g><svg viewBox="0 0 395.52 129.87773023255815" height="129.87773023255815" width="395.52"><g transform="matrix(1,0,0,1,0,0)"><svg width="395.52" viewBox="2.8 -40.4 161.23999999999998 52.95" height="129.87773023255815" data-palette-color="url(#2c80f84b-3c0d-40b5-bbd5-49369790a2e3)"><path d="M21.35 0.85Q15.25 0.85 11.1-1.6 6.95-4.05 4.88-8.5 2.8-12.95 2.8-18.9L2.8-18.9Q2.8-24.5 4.85-28.95 6.9-33.4 11.08-36 15.25-38.6 21.35-38.6L21.35-38.6Q24-38.6 26.08-38.18 28.15-37.75 30.55-36.75L30.55-36.75 30.55-32.3Q26.3-34.35 21.45-34.35L21.45-34.35Q17.25-34.35 14.15-32.38 11.05-30.4 9.4-26.88 7.75-23.35 7.8-18.9L7.8-18.9Q7.8-14.3 9.4-10.8 11-7.3 14.05-5.35 17.1-3.4 21.35-3.4L21.35-3.4Q24-3.4 26.58-4.15 29.15-4.9 32-6.3L32-6.3 33.55-2.2Q30.65-0.7 27.45 0.08 24.25 0.85 21.35 0.85L21.35 0.85ZM39.8-32.85L39.8-40.4 44.5-40.4 44.5-32.85 39.8-32.85ZM39.8 0L39.8-27.65 44.5-27.65 44.5 0 39.8 0ZM65.55-22.95L59.15-22.95 59.15-7.15Q59.15-5.15 59.77-4.42 60.4-3.7 62.1-3.7L62.1-3.7Q63.6-3.7 65.3-4.1L65.3-4.1 65.3 0.15Q63.05 0.65 61.3 0.65L61.3 0.65Q57.5 0.65 55.97-0.9 54.45-2.45 54.45-6.1L54.45-6.1 54.45-22.95 50.85-22.95 50.85-27.3 54.45-27.3 54.45-36.8 59.15-36.8 59.15-27.3 65.55-27.3 65.55-22.95ZM89.64-27.65L94.39-27.65 82.14 4.45Q80.84 7.85 79.79 9.5 78.74 11.15 77.32 11.85 75.89 12.55 73.39 12.55L73.39 12.55Q71.94 12.55 70.44 12.15L70.44 12.15 70.44 7.9Q71.74 8.2 73.04 8.2L73.04 8.2Q74.74 8.2 75.72 7.2 76.69 6.2 77.84 3.25L77.84 3.25 79.14-0.1 68.64-27.65 73.54-27.65 81.49-6.25 89.64-27.65ZM110.89-23.15L129.79-23.15 129.79-2.65Q126.84-0.95 123.32-0.05 119.79 0.85 116.74 0.85L116.74 0.85Q110.74 0.85 106.57-1.63 102.39-4.1 100.29-8.55 98.19-13 98.19-18.9L98.19-18.9Q98.19-24.5 100.22-28.95 102.24-33.4 106.42-36 110.59-38.6 116.74-38.6L116.74-38.6Q120.04-38.6 122.32-37.98 124.59-37.35 127.44-36.1L127.44-36.1 127.44-31.5Q124.89-32.9 122.42-33.63 119.94-34.35 116.74-34.35L116.74-34.35Q112.49-34.35 109.44-32.4 106.39-30.45 104.79-26.98 103.19-23.5 103.19-19.05L103.19-19.05Q103.19-14.4 104.77-10.88 106.34-7.35 109.39-5.38 112.44-3.4 116.74-3.4L116.74-3.4Q118.89-3.4 120.84-3.9 122.79-4.4 124.99-5.3L124.99-5.3 124.99-18.8 110.89-18.8 110.89-23.15ZM150.44 0.85Q146.04 0.85 142.96-1.07 139.89-3 138.34-6.33 136.79-9.65 136.79-13.8L136.79-13.8Q136.79-17.95 138.34-21.28 139.89-24.6 142.96-26.53 146.04-28.45 150.44-28.45L150.44-28.45Q154.84-28.45 157.91-26.53 160.99-24.6 162.51-21.28 164.04-17.95 164.04-13.8L164.04-13.8Q164.04-9.65 162.51-6.33 160.99-3 157.91-1.07 154.84 0.85 150.44 0.85L150.44 0.85ZM150.44-3.4Q154.59-3.4 156.86-6.3 159.14-9.2 159.14-13.8L159.14-13.8Q159.14-18.4 156.86-21.28 154.59-24.15 150.44-24.15L150.44-24.15Q146.29-24.15 143.99-21.28 141.69-18.4 141.69-13.8L141.69-13.8Q141.69-9.2 143.99-6.3 146.29-3.4 150.44-3.4L150.44-3.4Z" opacity="1" transform="matrix(1,0,0,1,0,0)" fill="white" class="wordmark-text-0" id="SvgjsPath1631"></path></svg></g></svg></g></svg></g></svg></g><g transform="matrix(1,0,0,1,0,0.32469432558139033)"><svg viewBox="0 0 160.43789143177298 129.87773023255815" height="129.87773023255815" width="160.43789143177298"><g><svg xmlns="http://www.w3.org/2000/svg" xmlns:xlink="http://www.w3.org/1999/xlink" version="1.1" x="0" y="0" viewBox="4.9995 13.57205104139477 90.00076814621133 72.85744895860523" enable-background="new 0 0 100 100" xml:space="preserve" height="129.87773023255815" width="160.43789143177298" class="icon-icon-0" data-fill-palette-color="accent" id="SvgjsSvg1630"><g fill="black"><path fill="black" d="M23.81 76.102c-2.362 2.361-2.362 6.192 0 8.556 2.362 2.362 6.193 2.362 8.556 0 2.361-2.363 2.361-6.194 0-8.556C30.003 73.739 26.172 73.739 23.81 76.102zM94.226 14.432l-0.086-0.085c-1.157-1.158-3.192-1-4.544 0.352L66.65 37.643 51.499 22.492 8.754 65.237 6.787 63.27l42.745-42.746c-2.363-2.348-6.183-2.343-8.541 0.015L6.771 54.757c-2.362 2.363-2.362 6.195 0 8.558L20.41 76.951c0.407-0.912 0.983-1.769 1.732-2.517 3.284-3.284 8.608-3.284 11.891 0 0.776 0.774 1.366 1.667 1.775 2.616l35.124-35.125-0.006-0.004 22.945-22.945C95.226 17.623 95.383 15.589 94.226 14.432z"></path></g></svg></g></svg></g></svg></g><defs><mask></mask></defs></svg><rect width="395.52" height="82.07743632368185" fill="black" stroke="none" visibility="hidden"></rect></g></mask><linearGradient x1="0" x2="1" y1="0.578" y2="0.595" id="2c80f84b-3c0d-40b5-bbd5-49369790a2e3"><stop stop-color="#6ee2f5" offset="0"></stop><stop stop-color="#6454f0" offset="1"></stop></linearGradient><rect width="395.52" height="82.07743632368185" fill="url(#2c80f84b-3c0d-40b5-bbd5-49369790a2e3)" mask="url(#ee0a1fc8-7f9d-4449-8bff-646db9763292)" data-fill-palette-color="primary"></rect><mask id="8a9eac42-502f-4701-a322-0b7af0ea54f6"><g id="SvgjsG1656"><svg viewBox="0 0 395.52 82.07743632368185" height="82.07743632368185" width="395.52"><g><svg viewBox="0 0 628.9924292627254 130.52711888372093" height="82.07743632368185" width="395.52"><g></g><g transform="matrix(1,0,0,1,233.47242926272546,0.32469432558139033)"><svg viewBox="0 0 395.52 129.87773023255815" height="129.87773023255815" width="395.52"><g id="SvgjsG1655"><svg viewBox="0 0 395.52 129.87773023255815" height="129.87773023255815" width="395.52" id="SvgjsSvg1654"><g><svg viewBox="0 0 395.52 129.87773023255815" height="129.87773023255815" width="395.52"><g transform="matrix(1,0,0,1,0,0)"><svg width="395.52" viewBox="2.8 -40.4 161.23999999999998 52.95" height="129.87773023255815" data-palette-color="url(#2c80f84b-3c0d-40b5-bbd5-49369790a2e3)"></svg></g></svg></g></svg></g></svg></g><g transform="matrix(1,0,0,1,0,0.32469432558139033)"><svg viewBox="0 0 160.43789143177298 129.87773023255815" height="129.87773023255815" width="160.43789143177298"><g><svg xmlns="http://www.w3.org/2000/svg" xmlns:xlink="http://www.w3.org/1999/xlink" version="1.1" x="0" y="0" viewBox="4.9995 13.57205104139477 90.00076814621133 72.85744895860523" enable-background="new 0 0 100 100" xml:space="preserve" height="129.87773023255815" width="160.43789143177298" class="icon-icon-0" data-fill-palette-color="accent" id="SvgjsSvg1653"><g fill="white"><path fill="white" d="M23.81 76.102c-2.362 2.361-2.362 6.192 0 8.556 2.362 2.362 6.193 2.362 8.556 0 2.361-2.363 2.361-6.194 0-8.556C30.003 73.739 26.172 73.739 23.81 76.102zM94.226 14.432l-0.086-0.085c-1.157-1.158-3.192-1-4.544 0.352L66.65 37.643 51.499 22.492 8.754 65.237 6.787 63.27l42.745-42.746c-2.363-2.348-6.183-2.343-8.541 0.015L6.771 54.757c-2.362 2.363-2.362 6.195 0 8.558L20.41 76.951c0.407-0.912 0.983-1.769 1.732-2.517 3.284-3.284 8.608-3.284 11.891 0 0.776 0.774 1.366 1.667 1.775 2.616l35.124-35.125-0.006-0.004 22.945-22.945C95.226 17.623 95.383 15.589 94.226 14.432z"></path></g></svg></g></svg></g></svg></g><defs><mask></mask></defs><mask><g id="SvgjsG1652"><svg viewBox="0 0 395.52 82.07743632368185" height="82.07743632368185" width="395.52"><g><svg viewBox="0 0 628.9924292627254 130.52711888372093" height="82.07743632368185" width="395.52"><g><rect width="11.712507746189695" height="130.52711888372093" x="191.09890647415438" y="0" fill="black" opacity="1" stroke-width="0" stroke="transparent" fill-opacity="1" class="rect-qz-0" rx="1%" id="SvgjsRect1651" data-palette-color="url(#2c80f84b-3c0d-40b5-bbd5-49369790a2e3)"></rect></g><g transform="matrix(1,0,0,1,233.47242926272546,0.32469432558139033)"><svg viewBox="0 0 395.52 129.87773023255815" height="129.87773023255815" width="395.52"><g id="SvgjsG1650"><svg viewBox="0 0 395.52 129.87773023255815" height="129.87773023255815" width="395.52" id="SvgjsSvg1649"><g><svg viewBox="0 0 395.52 129.87773023255815" height="129.87773023255815" width="395.52"><g transform="matrix(1,0,0,1,0,0)"><svg width="395.52" viewBox="2.8 -40.4 161.23999999999998 52.95" height="129.87773023255815" data-palette-color="url(#2c80f84b-3c0d-40b5-bbd5-49369790a2e3)"><path d="M21.35 0.85Q15.25 0.85 11.1-1.6 6.95-4.05 4.88-8.5 2.8-12.95 2.8-18.9L2.8-18.9Q2.8-24.5 4.85-28.95 6.9-33.4 11.08-36 15.25-38.6 21.35-38.6L21.35-38.6Q24-38.6 26.08-38.18 28.15-37.75 30.55-36.75L30.55-36.75 30.55-32.3Q26.3-34.35 21.45-34.35L21.45-34.35Q17.25-34.35 14.15-32.38 11.05-30.4 9.4-26.88 7.75-23.35 7.8-18.9L7.8-18.9Q7.8-14.3 9.4-10.8 11-7.3 14.05-5.35 17.1-3.4 21.35-3.4L21.35-3.4Q24-3.4 26.58-4.15 29.15-4.9 32-6.3L32-6.3 33.55-2.2Q30.65-0.7 27.45 0.08 24.25 0.85 21.35 0.85L21.35 0.85ZM39.8-32.85L39.8-40.4 44.5-40.4 44.5-32.85 39.8-32.85ZM39.8 0L39.8-27.65 44.5-27.65 44.5 0 39.8 0ZM65.55-22.95L59.15-22.95 59.15-7.15Q59.15-5.15 59.77-4.42 60.4-3.7 62.1-3.7L62.1-3.7Q63.6-3.7 65.3-4.1L65.3-4.1 65.3 0.15Q63.05 0.65 61.3 0.65L61.3 0.65Q57.5 0.65 55.97-0.9 54.45-2.45 54.45-6.1L54.45-6.1 54.45-22.95 50.85-22.95 50.85-27.3 54.45-27.3 54.45-36.8 59.15-36.8 59.15-27.3 65.55-27.3 65.55-22.95ZM89.64-27.65L94.39-27.65 82.14 4.45Q80.84 7.85 79.79 9.5 78.74 11.15 77.32 11.85 75.89 12.55 73.39 12.55L73.39 12.55Q71.94 12.55 70.44 12.15L70.44 12.15 70.44 7.9Q71.74 8.2 73.04 8.2L73.04 8.2Q74.74 8.2 75.72 7.2 76.69 6.2 77.84 3.25L77.84 3.25 79.14-0.1 68.64-27.65 73.54-27.65 81.49-6.25 89.64-27.65ZM110.89-23.15L129.79-23.15 129.79-2.65Q126.84-0.95 123.32-0.05 119.79 0.85 116.74 0.85L116.74 0.85Q110.74 0.85 106.57-1.63 102.39-4.1 100.29-8.55 98.19-13 98.19-18.9L98.19-18.9Q98.19-24.5 100.22-28.95 102.24-33.4 106.42-36 110.59-38.6 116.74-38.6L116.74-38.6Q120.04-38.6 122.32-37.98 124.59-37.35 127.44-36.1L127.44-36.1 127.44-31.5Q124.89-32.9 122.42-33.63 119.94-34.35 116.74-34.35L116.74-34.35Q112.49-34.35 109.44-32.4 106.39-30.45 104.79-26.98 103.19-23.5 103.19-19.05L103.19-19.05Q103.19-14.4 104.77-10.88 106.34-7.35 109.39-5.38 112.44-3.4 116.74-3.4L116.74-3.4Q118.89-3.4 120.84-3.9 122.79-4.4 124.99-5.3L124.99-5.3 124.99-18.8 110.89-18.8 110.89-23.15ZM150.44 0.85Q146.04 0.85 142.96-1.07 139.89-3 138.34-6.33 136.79-9.65 136.79-13.8L136.79-13.8Q136.79-17.95 138.34-21.28 139.89-24.6 142.96-26.53 146.04-28.45 150.44-28.45L150.44-28.45Q154.84-28.45 157.91-26.53 160.99-24.6 162.51-21.28 164.04-17.95 164.04-13.8L164.04-13.8Q164.04-9.65 162.51-6.33 160.99-3 157.91-1.07 154.84 0.85 150.44 0.85L150.44 0.85ZM150.44-3.4Q154.59-3.4 156.86-6.3 159.14-9.2 159.14-13.8L159.14-13.8Q159.14-18.4 156.86-21.28 154.59-24.15 150.44-24.15L150.44-24.15Q146.29-24.15 143.99-21.28 141.69-18.4 141.69-13.8L141.69-13.8Q141.69-9.2 143.99-6.3 146.29-3.4 150.44-3.4L150.44-3.4Z" opacity="1" transform="matrix(1,0,0,1,0,0)" fill="black" class="wordmark-text-0" id="SvgjsPath1648"></path></svg></g></svg></g></svg></g></svg></g><g transform="matrix(1,0,0,1,0,0.32469432558139033)"><svg viewBox="0 0 160.43789143177298 129.87773023255815" height="129.87773023255815" width="160.43789143177298"><g><svg xmlns="http://www.w3.org/2000/svg" xmlns:xlink="http://www.w3.org/1999/xlink" version="1.1" x="0" y="0" viewBox="4.9995 13.57205104139477 90.00076814621133 72.85744895860523" enable-background="new 0 0 100 100" xml:space="preserve" height="129.87773023255815" width="160.43789143177298" class="icon-icon-0" data-fill-palette-color="accent" id="SvgjsSvg1647"><g fill="black"><path fill="black" d="M23.81 76.102c-2.362 2.361-2.362 6.192 0 8.556 2.362 2.362 6.193 2.362 8.556 0 2.361-2.363 2.361-6.194 0-8.556C30.003 73.739 26.172 73.739 23.81 76.102zM94.226 14.432l-0.086-0.085c-1.157-1.158-3.192-1-4.544 0.352L66.65 37.643 51.499 22.492 8.754 65.237 6.787 63.27l42.745-42.746c-2.363-2.348-6.183-2.343-8.541 0.015L6.771 54.757c-2.362 2.363-2.362 6.195 0 8.558L20.41 76.951c0.407-0.912 0.983-1.769 1.732-2.517 3.284-3.284 8.608-3.284 11.891 0 0.776 0.774 1.366 1.667 1.775 2.616l35.124-35.125-0.006-0.004 22.945-22.945C95.226 17.623 95.383 15.589 94.226 14.432z"></path></g></svg></g></svg></g></svg></g><defs><mask></mask></defs></svg><rect width="395.52" height="82.07743632368185" fill="black" stroke="none" visibility="hidden"></rect></g></mask></svg><rect width="395.52" height="82.07743632368185" fill="black" stroke="none" visibility="hidden"></rect></g></mask><linearGradient x1="0" x2="1" y1="0.578" y2="0.595" id="434955df-ffee-4367-aa9b-899444c0ccab"><stop stop-color="#6ee2f5" offset="0"></stop><stop stop-color="#6454f0" offset="1"></stop></linearGradient><rect width="395.52" height="82.07743632368185" fill="url(#434955df-ffee-4367-aa9b-899444c0ccab)" mask="url(#8a9eac42-502f-4701-a322-0b7af0ea54f6)" data-fill-palette-color="accent"></rect></svg><rect width="395.52" height="82.07743632368185" fill="none" stroke="none" visibility="hidden"></rect></g></svg></g></svg>